HIERARCHY
ROOT Hips
{
	OFFSET -338.882294 -555.210510 88.995560
	CHANNELS 6 Xposition Yposition Zposition Zrotation Yrotation Xrotation
	JOINT Spine
	{
		OFFSET 0.000000 2.080078 8.814247
		CHANNELS 6 Xposition Yposition Zposition Zrotation Yrotation Xrotation
		JOINT Spine1
		{
			OFFSET 0.000000 0.000000 8.844139
			CHANNELS 6 Xposition Yposition Zposition Zrotation Yrotation Xrotation
			JOINT Spine2
			{
				OFFSET 0.000000 0.000000 11.682266
				CHANNELS 6 Xposition Yposition Zposition Zrotation Yrotation Xrotation
				JOINT Spine3
				{
					OFFSET 0.000000 0.000000 11.746704
					CHANNELS 6 Xposition Yposition Zposition Zrotation Yrotation Xrotation
					JOINT Neck
					{
						OFFSET 0.000000 0.000000 17.658264
						CHANNELS 6 Xposition Yposition Zposition Zrotation Yrotation Xrotation
						JOINT Neck1
						{
							OFFSET 0.000000 0.000000 5.101517
							CHANNELS 6 Xposition Yposition Zposition Zrotation Yrotation Xrotation
							JOINT Head
							{
								OFFSET 0.000000 0.000000 5.101517
								CHANNELS 6 Xposition Yposition Zposition Zrotation Yrotation Xrotation
								JOINT HeadEnd
								{
									OFFSET 0.000000 0.000000 11.655090
									CHANNELS 6 Xposition Yposition Zposition Zrotation Yrotation Xrotation
									End Site
									{
										OFFSET 0.000000 0.000000 0.100006
									}
								}
							}
						}
					}
					JOINT RightShoulder
					{
						OFFSET -2.625397 0.000000 11.175217
						CHANNELS 6 Xposition Yposition Zposition Zrotation Yrotation Xrotation
						JOINT RightArm
						{
							OFFSET 0.000000 0.000000 10.434723
							CHANNELS 6 Xposition Yposition Zposition Zrotation Yrotation Xrotation
							JOINT RightForeArm
							{
								OFFSET 0.000000 0.000000 29.628418
								CHANNELS 6 Xposition Yposition Zposition Zrotation Yrotation Xrotation
								JOINT RightHand
								{
									OFFSET 0.000000 0.000000 22.857605
									CHANNELS 6 Xposition Yposition Zposition Zrotation Yrotation Xrotation
									JOINT RightHandThumb1
									{
										OFFSET -2.867310 -2.944275 3.959564
										CHANNELS 6 Xposition Yposition Zposition Zrotation Yrotation Xrotation
										JOINT RightHandThumb2
										{
											OFFSET 0.000000 0.000000 3.350403
											CHANNELS 6 Xposition Yposition Zposition Zrotation Yrotation Xrotation
											JOINT RightHandThumb3
											{
												OFFSET 0.000000 0.000000 3.756516
												CHANNELS 6 Xposition Yposition Zposition Zrotation Yrotation Xrotation
												JOINT RightHandThumb4
												{
													OFFSET 0.000000 0.000000 3.147339
													CHANNELS 6 Xposition Yposition Zposition Zrotation Yrotation Xrotation
													End Site
													{
														OFFSET 0.000000 0.000000 0.100006
													}
												}
											}
										}
									}
									JOINT RightHandIndex1
									{
										OFFSET -0.086761 -2.345276 10.030899
										CHANNELS 6 Xposition Yposition Zposition Zrotation Yrotation Xrotation
										JOINT RightHandIndex2
										{
											OFFSET 0.000000 0.000000 4.061096
											CHANNELS 6 Xposition Yposition Zposition Zrotation Yrotation Xrotation
											JOINT RightHandIndex3
											{
												OFFSET 0.000000 0.000000 3.248871
												CHANNELS 6 Xposition Yposition Zposition Zrotation Yrotation Xrotation
												JOINT RightHandIndex4
												{
													OFFSET 0.000000 0.000000 2.639709
													CHANNELS 6 Xposition Yposition Zposition Zrotation Yrotation Xrotation
													End Site
													{
														OFFSET 0.000000 0.000000 0.100006
													}
												}
											}
										}
									}
									JOINT RightHandMiddle1
									{
										OFFSET 0.104095 -0.006775 9.502945
										CHANNELS 6 Xposition Yposition Zposition Zrotation Yrotation Xrotation
										JOINT RightHandMiddle2
										{
											OFFSET 0.000000 0.000000 4.568726
											CHANNELS 6 Xposition Yposition Zposition Zrotation Yrotation Xrotation
											JOINT RightHandMiddle3
											{
												OFFSET 0.000000 0.000000 3.654984
												CHANNELS 6 Xposition Yposition Zposition Zrotation Yrotation Xrotation
												JOINT RightHandMiddle4
												{
													OFFSET 0.000000 0.000000 2.741241
													CHANNELS 6 Xposition Yposition Zposition Zrotation Yrotation Xrotation
													End Site
													{
														OFFSET 0.000000 0.000000 0.100006
													}
												}
											}
										}
									}
									JOINT RightHandRing1
									{
										OFFSET 0.086761 2.267456 8.921707
										CHANNELS 6 Xposition Yposition Zposition Zrotation Yrotation Xrotation
										JOINT RightHandRing2
										{
											OFFSET 0.000000 0.000000 4.061096
											CHANNELS 6 Xposition Yposition Zposition Zrotation Yrotation Xrotation
											JOINT RightHandRing3
											{
												OFFSET 0.000000 0.000000 3.654984
												CHANNELS 6 Xposition Yposition Zposition Zrotation Yrotation Xrotation
												JOINT RightHandRing4
												{
													OFFSET 0.000000 0.000000 2.741241
													CHANNELS 6 Xposition Yposition Zposition Zrotation Yrotation Xrotation
													End Site
													{
														OFFSET 0.000000 0.000000 0.100006
													}
												}
											}
										}
									}
									JOINT RightHandPinky1
									{
										OFFSET -0.173492 4.467224 7.976990
										CHANNELS 6 Xposition Yposition Zposition Zrotation Yrotation Xrotation
										JOINT RightHandPinky2
										{
											OFFSET 0.000000 0.000000 3.350403
											CHANNELS 6 Xposition Yposition Zposition Zrotation Yrotation Xrotation
											JOINT RightHandPinky3
											{
												OFFSET 0.000000 0.000000 2.842758
												CHANNELS 6 Xposition Yposition Zposition Zrotation Yrotation Xrotation
												JOINT RightHandPinky4
												{
													OFFSET 0.000000 0.000000 2.639709
													CHANNELS 6 Xposition Yposition Zposition Zrotation Yrotation Xrotation
													End Site
													{
														OFFSET 0.000000 0.000000 0.100006
													}
												}
											}
										}
									}
									JOINT RightForeArmEnd
									{
										OFFSET 0.000000 0.000000 0.000000
										CHANNELS 6 Xposition Yposition Zposition Zrotation Yrotation Xrotation
										End Site
										{
											OFFSET 0.000000 0.000000 0.100006
										}
									}
								}
								JOINT RightArmEnd
								{
									OFFSET 0.000000 0.000000 0.000000
									CHANNELS 6 Xposition Yposition Zposition Zrotation Yrotation Xrotation
									End Site
									{
										OFFSET 0.000000 0.000000 0.100006
									}
								}
							}
						}
					}
					JOINT LeftShoulder
					{
						OFFSET 2.625397 0.000000 11.175217
						CHANNELS 6 Xposition Yposition Zposition Zrotation Yrotation Xrotation
						JOINT LeftArm
						{
							OFFSET 0.000000 0.000000 10.813629
							CHANNELS 6 Xposition Yposition Zposition Zrotation Yrotation Xrotation
							JOINT LeftForeArm
							{
								OFFSET 0.000000 0.000000 28.724777
								CHANNELS 6 Xposition Yposition Zposition Zrotation Yrotation Xrotation
								JOINT LeftHand
								{
									OFFSET 0.644379 0.328857 25.716171
									CHANNELS 6 Xposition Yposition Zposition Zrotation Yrotation Xrotation
									JOINT LeftHandThumb1
									{
										OFFSET 2.867310 -2.944275 3.959564
										CHANNELS 6 Xposition Yposition Zposition Zrotation Yrotation Xrotation
										JOINT LeftHandThumb2
										{
											OFFSET 0.000000 0.000000 3.350403
											CHANNELS 6 Xposition Yposition Zposition Zrotation Yrotation Xrotation
											JOINT LeftHandThumb3
											{
												OFFSET 0.000000 0.000000 3.756516
												CHANNELS 6 Xposition Yposition Zposition Zrotation Yrotation Xrotation
												JOINT LeftHandThumb4
												{
													OFFSET 0.000000 0.000000 3.100006
													CHANNELS 6 Xposition Yposition Zposition Zrotation Yrotation Xrotation
													End Site
													{
														OFFSET 0.000000 0.000000 0.100006
													}
												}
											}
										}
									}
									JOINT LeftHandIndex1
									{
										OFFSET 0.086761 -2.345276 10.030899
										CHANNELS 6 Xposition Yposition Zposition Zrotation Yrotation Xrotation
										JOINT LeftHandIndex2
										{
											OFFSET 0.000000 0.000000 4.061096
											CHANNELS 6 Xposition Yposition Zposition Zrotation Yrotation Xrotation
											JOINT LeftHandIndex3
											{
												OFFSET 0.000000 0.000000 3.248871
												CHANNELS 6 Xposition Yposition Zposition Zrotation Yrotation Xrotation
												JOINT LeftHandIndex4
												{
													OFFSET 0.000000 0.000000 2.639709
													CHANNELS 6 Xposition Yposition Zposition Zrotation Yrotation Xrotation
													End Site
													{
														OFFSET 0.000000 0.000000 0.100006
													}
												}
											}
										}
									}
									JOINT LeftHandMiddle1
									{
										OFFSET -0.104095 -0.006775 9.502945
										CHANNELS 6 Xposition Yposition Zposition Zrotation Yrotation Xrotation
										JOINT LeftHandMiddle2
										{
											OFFSET 0.000000 0.000000 4.568726
											CHANNELS 6 Xposition Yposition Zposition Zrotation Yrotation Xrotation
											JOINT LeftHandMiddle3
											{
												OFFSET 0.000000 0.000000 3.654984
												CHANNELS 6 Xposition Yposition Zposition Zrotation Yrotation Xrotation
												JOINT LeftHandMiddle4
												{
													OFFSET 0.000000 0.000000 2.741241
													CHANNELS 6 Xposition Yposition Zposition Zrotation Yrotation Xrotation
													End Site
													{
														OFFSET 0.000000 0.000000 0.100006
													}
												}
											}
										}
									}
									JOINT LeftHandRing1
									{
										OFFSET -0.086761 2.267456 8.921707
										CHANNELS 6 Xposition Yposition Zposition Zrotation Yrotation Xrotation
										JOINT LeftHandRing2
										{
											OFFSET 0.000000 0.000000 4.061096
											CHANNELS 6 Xposition Yposition Zposition Zrotation Yrotation Xrotation
											JOINT LeftHandRing3
											{
												OFFSET 0.000000 0.000000 3.654984
												CHANNELS 6 Xposition Yposition Zposition Zrotation Yrotation Xrotation
												JOINT LeftHandRing4
												{
													OFFSET 0.000000 0.000000 2.741241
													CHANNELS 6 Xposition Yposition Zposition Zrotation Yrotation Xrotation
													End Site
													{
														OFFSET 0.000000 0.000000 0.100006
													}
												}
											}
										}
									}
									JOINT LeftHandPinky1
									{
										OFFSET 0.173492 4.467224 7.976990
										CHANNELS 6 Xposition Yposition Zposition Zrotation Yrotation Xrotation
										JOINT LeftHandPinky2
										{
											OFFSET 0.000000 0.000000 3.350403
											CHANNELS 6 Xposition Yposition Zposition Zrotation Yrotation Xrotation
											JOINT LeftHandPinky3
											{
												OFFSET 0.000000 0.000000 2.842758
												CHANNELS 6 Xposition Yposition Zposition Zrotation Yrotation Xrotation
												JOINT LeftHandPinky4
												{
													OFFSET 0.000000 0.000000 2.639709
													CHANNELS 6 Xposition Yposition Zposition Zrotation Yrotation Xrotation
													End Site
													{
														OFFSET 0.000000 0.000000 0.100006
													}
												}
											}
										}
									}
									JOINT LeftForeArmEnd
									{
										OFFSET 0.000000 0.000000 0.000000
										CHANNELS 6 Xposition Yposition Zposition Zrotation Yrotation Xrotation
										End Site
										{
											OFFSET 0.000000 0.000000 0.100006
										}
									}
								}
								JOINT LeftArmEnd
								{
									OFFSET 0.000000 0.000000 0.000000
									CHANNELS 6 Xposition Yposition Zposition Zrotation Yrotation Xrotation
									End Site
									{
										OFFSET 0.000000 0.000000 0.100006
									}
								}
							}
						}
					}
				}
			}
		}
	}
	JOINT RightUpLeg
	{
		OFFSET -11.289948 0.000000 0.000000
		CHANNELS 6 Xposition Yposition Zposition Zrotation Yrotation Xrotation
		JOINT RightLeg
		{
			OFFSET 0.000000 0.000000 -38.200321
			CHANNELS 6 Xposition Yposition Zposition Zrotation Yrotation Xrotation
			JOINT RightFoot
			{
				OFFSET 0.000000 0.000000 -39.900856
				CHANNELS 6 Xposition Yposition Zposition Zrotation Yrotation Xrotation
				JOINT RightToeBase
				{
					OFFSET 0.000000 -15.261658 0.000001
					CHANNELS 6 Xposition Yposition Zposition Zrotation Yrotation Xrotation
					JOINT RightToeBaseEnd
					{
						OFFSET 0.000000 -7.370728 0.000001
						CHANNELS 6 Xposition Yposition Zposition Zrotation Yrotation Xrotation
						End Site
						{
							OFFSET 0.000000 0.000000 0.100000
						}
					}
				}
				JOINT RightLegEnd
				{
					OFFSET 0.000000 0.000000 0.000000
					CHANNELS 6 Xposition Yposition Zposition Zrotation Yrotation Xrotation
					End Site
					{
						OFFSET 0.000000 0.000000 0.100000
					}
				}
			}
			JOINT RightUpLegEnd
			{
				OFFSET 0.000000 0.000000 0.000000
				CHANNELS 6 Xposition Yposition Zposition Zrotation Yrotation Xrotation
				End Site
				{
					OFFSET 0.000000 0.000000 0.099998
				}
			}
		}
	}
	JOINT LeftUpLeg
	{
		OFFSET 11.315674 0.000000 0.000000
		CHANNELS 6 Xposition Yposition Zposition Zrotation Yrotation Xrotation
		JOINT LeftLeg
		{
			OFFSET 0.000000 0.000000 -38.200321
			CHANNELS 6 Xposition Yposition Zposition Zrotation Yrotation Xrotation
			JOINT LeftFoot
			{
				OFFSET 0.000000 0.000000 -39.900856
				CHANNELS 6 Xposition Yposition Zposition Zrotation Yrotation Xrotation
				JOINT LeftToeBase
				{
					OFFSET 0.000000 -15.261658 0.000001
					CHANNELS 6 Xposition Yposition Zposition Zrotation Yrotation Xrotation
					JOINT LeftToeBaseEnd
					{
						OFFSET 0.000000 -7.539978 0.000001
						CHANNELS 6 Xposition Yposition Zposition Zrotation Yrotation Xrotation
						End Site
						{
							OFFSET 0.000000 0.000000 0.100000
						}
					}
				}
				JOINT LeftLegEnd
				{
					OFFSET 0.000000 0.000000 0.000000
					CHANNELS 6 Xposition Yposition Zposition Zrotation Yrotation Xrotation
					End Site
					{
						OFFSET 0.000000 0.000000 0.100000
					}
				}
			}
			JOINT LeftUpLegEnd
			{
				OFFSET 0.000000 0.000000 0.000000
				CHANNELS 6 Xposition Yposition Zposition Zrotation Yrotation Xrotation
				End Site
				{
					OFFSET 0.000000 0.000000 0.099998
				}
			}
		}
	}
}
MOTION
Frames: 2
Frame Time: 0.016667
4.940765 -1.127380 84.833405 -27.675230 3.413781 -17.360135 0.000010 2.080091 8.814251 0.138196 -3.075366 10.793803 0.000009 0.000021 8.844133 0.716945 -0.309777 5.166928 0.000014 -0.000034 11.682260 3.047501 2.038513 8.145264 -0.000004 0.000002 11.746706 1.726245 1.904045 3.341548 -0.000000 -0.000030 17.658268 7.999373 2.044764 -1.820427 -0.000003 0.000010 5.101521 8.376233 -1.409689 -8.672688 0.000008 0.000024 5.101564 -1.890896 3.350483 -19.148907 -0.000001 0.000002 11.655075 -0.000000 0.000000 0.000002 -2.625412 0.000006 11.175224 19.095561 -78.338889 0.250144 0.000008 -0.000008 10.434715 -15.071793 -48.428910 65.021816 0.000011 -0.000015 29.628376 19.532755 1.842433 116.173431 0.000038 -0.000008 22.857574 98.167454 -10.726258 -7.823614 -2.867332 -2.944290 3.959602 32.131406 -14.558089 55.808724 0.000013 0.000057 3.350368 -6.766217 5.410512 -12.729218 -0.000008 -0.000010 3.756510 -4.569075 3.919074 -8.765514 -0.000008 0.000004 3.147340 -0.000001 0.000002 0.000001 -0.086765 -2.345291 10.030945 -6.058765 13.545966 25.193725 -0.000012 0.000013 4.061120 0.538843 0.044234 0.000289 0.000005 -0.000020 3.248872 0.036509 -0.024335 0.000207 0.000010 0.000008 2.639709 -0.000001 -0.000002 0.000002 0.104091 -0.006813 9.502963 -3.480077 0.190816 18.652760 -0.000008 -0.000007 4.568743 0.497767 -0.658914 0.034561 -0.000005 0.000028 3.655009 -0.001992 -0.658905 0.034566 -0.000008 -0.000004 2.741266 0.000000 0.000000 0.000001 0.086746 2.267426 8.921761 0.808898 -22.179014 10.635433 -0.000010 -0.000002 4.061110 -0.874515 -15.108119 -0.946124 -0.000017 -0.000014 3.655001 0.125504 -15.107757 -0.946216 0.000014 -0.000008 2.741268 0.000001 0.000002 0.000000 -0.173481 4.467208 7.977009 8.770769 -33.742299 -6.983921 -0.000002 0.000012 3.350414 -0.946212 -23.977613 -4.959575 0.000002 0.000024 2.842747 1.053790 -23.977630 -4.959567 0.000003 0.000014 2.639704 -0.000002 -0.000001 -0.000000 -0.000015 0.000010 -0.000005 -0.000001 0.000001 -0.000000 -0.000020 0.000005 0.000003 0.000000 -0.000001 0.000000 2.625397 -0.000020 11.175221 -16.789892 82.842668 -0.594709 -0.000038 -0.000031 10.813606 -75.356111 70.360319 -38.509559 0.000005 -0.000006 28.724836 -26.367124 -1.020975 87.796426 0.644413 0.328865 25.716152 -107.866336 -29.186443 4.401968 2.867287 -2.944260 3.959595 -35.185071 32.641211 30.306977 0.000015 0.000000 3.350407 45.290954 -5.794557 -76.165864 0.000000 -0.000015 3.756508 31.187791 -10.744876 -52.736205 0.000004 -0.000003 3.100013 0.000001 -0.000001 0.000000 0.086761 -2.345268 10.030937 160.508995 43.173660 -56.206552 0.000036 0.000008 4.061097 -83.200918 81.996441 -91.724946 0.000021 0.000010 3.248867 -83.700744 81.996462 -91.725397 0.000005 -0.000005 2.639711 0.000001 0.000001 -0.000001 -0.104090 -0.006794 9.502953 -6.588168 -16.582545 27.345933 -0.000035 -0.000025 4.568738 0.568296 0.000004 0.011100 -0.000006 -0.000008 3.654968 0.058711 0.000001 0.016625 0.000028 0.000013 2.741224 -0.000002 -0.000001 -0.000000 -0.086761 2.267483 8.921730 6.311617 9.421037 8.371590 0.000013 -0.000018 4.061093 -0.972699 7.129024 0.438295 -0.000004 0.000001 3.654990 0.027308 7.129026 0.438314 -0.000012 0.000002 2.741224 -0.000001 -0.000002 -0.000003 0.173508 4.467247 7.976990 20.816405 33.097543 -8.676055 0.000025 -0.000018 3.350410 -1.197238 21.115890 4.305063 -0.000002 -0.000003 2.842754 0.802778 21.115805 4.305078 -0.000015 0.000002 2.639697 -0.000000 -0.000002 0.000000 -0.000018 0.000008 0.000018 -0.000001 0.000000 -0.000000 0.000025 0.000004 -0.000002 -0.000001 -0.000000 0.000000 -11.289945 -0.000017 0.000010 -1.188048 8.365412 -0.093896 -0.000049 -0.000026 -38.200314 -1.438880 0.515376 19.702198 -0.000034 -0.000014 -39.900871 -9.992802 -4.843732 23.353675 0.000030 -15.261794 0.000022 1.164335 1.267397 -24.058923 -0.000013 -7.370743 0.000001 0.000003 -0.000000 0.000000 0.000014 -0.000045 -0.000001 -0.000003 -0.000000 -0.000000 -0.000041 -0.000007 -0.000003 0.000001 0.000001 0.000000 11.315641 -0.000004 0.000008 5.049213 -14.466161 9.476382 -0.000045 -0.000020 -38.200333 0.385043 -0.281882 36.206170 -0.000016 -0.000037 -39.900860 22.284327 10.894092 7.447976 -0.000044 -15.261778 0.000034 -1.435065 -1.520497 -19.271259 0.000002 -7.539980 0.000001 0.000000 -0.000001 0.000001 -0.000022 -0.000004 0.000001 0.000001 -0.000000 0.000000 -0.000046 0.000005 -0.000003 -0.000001 -0.000002 -0.000002 
3.792755 -1.124573 84.914001 -27.773054 3.660443 -17.277901 0.000007 2.080084 8.814238 0.078541 -3.134276 10.605987 -0.000009 0.000020 8.844130 0.654832 -0.364807 5.047159 -0.000013 0.000014 11.682270 2.641687 1.854844 8.177787 -0.000037 0.000008 11.746699 1.544324 1.785322 3.408990 0.000003 -0.000013 17.658268 8.178811 2.303914 -1.661458 -0.000005 -0.000015 5.101501 8.547594 -1.355965 -8.601296 0.000016 -0.000003 5.101519 -1.885539 3.441611 -19.215296 0.000004 0.000001 11.655066 -0.000000 -0.000001 0.000000 -2.625420 -0.000021 11.175261 19.058366 -78.406760 0.252893 -0.000031 0.000038 10.434742 -14.708928 -47.651692 64.321968 0.000008 -0.000023 29.628353 19.528262 1.817263 115.980328 0.000069 0.000023 22.857605 98.702599 -12.113140 -9.261392 -2.867317 -2.944260 3.959557 32.088908 -14.722000 55.537235 -0.000008 -0.000065 3.350403 -7.118219 5.629091 -13.352915 -0.000006 0.000011 3.756491 -4.801584 4.087756 -9.191279 0.000016 0.000001 3.147301 -0.000000 -0.000004 -0.000002 -0.086746 -2.345295 10.030922 -6.234696 12.341646 25.444584 0.000021 0.000005 4.061122 0.535101 0.024018 0.000107 0.000002 0.000012 3.248882 0.032990 -0.013748 0.000173 0.000000 -0.000010 2.639731 0.000000 -0.000002 0.000001 0.104086 -0.006798 9.502947 -3.695174 -1.036891 18.879565 -0.000011 0.000010 4.568741 0.497008 -1.557551 0.080781 -0.000000 0.000014 3.654992 -0.002909 -1.534248 0.081156 0.000006 -0.000005 2.741274 0.000000 0.000000 0.000002 0.086754 2.267433 8.921745 0.561909 -23.614134 11.024416 -0.000008 0.000025 4.061100 -0.856845 -16.104387 -1.011836 0.000012 -0.000001 3.655007 0.143147 -16.104391 -1.011822 0.000001 -0.000005 2.741247 0.000001 0.000001 -0.000000 -0.173470 4.467253 7.976986 8.692353 -35.210093 -6.670746 0.000000 0.000014 3.350414 -0.854612 -24.917237 -5.180859 0.000033 0.000033 2.842754 1.145297 -24.917312 -5.180731 -0.000009 -0.000006 2.639706 0.000001 0.000000 0.000000 -0.000005 0.000024 -0.000025 -0.000001 0.000000 -0.000000 -0.000031 -0.000000 -0.000017 -0.000001 0.000003 0.000002 2.625416 0.000005 11.175251 -16.652572 82.850577 -0.591286 0.000004 -0.000031 10.813648 -74.446234 70.259451 -37.939054 -0.000015 0.000049 28.724794 -26.268931 -0.803903 89.441300 0.644360 0.328873 25.716156 -108.724850 -28.773756 4.434653 2.867281 -2.944275 3.959564 -35.185255 32.641033 30.306536 0.000000 0.000015 3.350426 45.290851 -5.795584 -76.164826 -0.000008 0.000015 3.756512 31.188720 -10.744108 -52.735990 -0.000029 -0.000004 3.100005 0.000001 0.000000 0.000000 0.086731 -2.345299 10.030907 160.996534 42.430033 -56.636560 0.000036 0.000011 4.061090 -86.794001 81.965508 -95.353225 -0.000025 -0.000002 3.248889 -87.294004 81.965508 -95.354017 0.000025 -0.000005 2.639730 0.000001 -0.000000 0.000001 -0.104118 -0.006794 9.502960 -6.187451 -14.777558 28.019167 -0.000020 0.000019 4.568735 0.563728 -0.055894 0.008676 0.000009 -0.000020 3.654966 0.054755 0.031138 0.014686 0.000010 0.000003 2.741244 -0.000000 -0.000002 0.000002 -0.086796 2.267441 8.921715 6.861304 12.157445 10.072649 -0.000006 -0.000023 4.061095 -0.954743 9.159128 0.565033 0.000014 -0.000026 3.655005 0.045258 9.159267 0.565054 -0.000001 -0.000001 2.741263 0.000000 0.000001 -0.000000 0.173462 4.467239 7.976997 21.887802 35.042446 -6.236575 0.000032 0.000021 3.350399 -1.054561 22.798912 4.686607 0.000007 0.000011 2.842773 0.945439 22.798926 4.686617 -0.000004 0.000001 2.639714 0.000000 0.000000 -0.000000 -0.000043 0.000004 0.000028 -0.000000 -0.000000 0.000000 0.000001 -0.000006 0.000007 0.000000 -0.000000 -0.000001 -11.289988 -0.000040 -0.000000 -2.138068 7.605759 -0.400921 -0.000037 0.000047 -38.200340 -1.422815 0.534878 20.598539 -0.000055 -0.000041 -39.900856 -9.357906 -4.839875 22.951857 0.000015 -15.261806 0.000030 1.323481 1.198371 -23.211718 0.000014 -7.370724 0.000000 -0.000001 -0.000000 0.000000 -0.000029 -0.000056 0.000003 -0.000001 0.000001 0.000000 -0.000023 -0.000015 -0.000002 0.000003 -0.000000 -0.000000 11.315670 -0.000011 0.000000 4.565267 -15.309577 10.088446 -0.000072 -0.000035 -38.200352 0.423567 -0.301891 35.478359 -0.000017 -0.000032 -39.900852 22.511042 11.007239 8.178608 -0.000013 -15.261718 0.000025 -1.393858 -1.668575 -19.005152 -0.000035 -7.539979 0.000001 0.000000 -0.000001 0.000002 0.000012 -0.000002 0.000001 0.000000 -0.000000 0.000005 -0.000032 -0.000006 0.000000 0.000001 -0.000000 -0.000001 
